<svg width="152" height="58" viewBox="0 0 152 58" fill="none" xmlns="http://www.w3.org/2000/svg">
<path d="M48.8438 34.8828C48.9062 34.9922 48.9375 35.125 48.9375 35.2812C48.9375 35.5156 48.8516 35.7188 48.6797 35.8906C48.5234 36.0625 48.3125 36.1484 48.0469 36.1484C47.875 36.1484 47.7188 36.1094 47.5781 36.0312C47.4531 35.9531 47.3516 35.8359 47.2734 35.6797C46.9766 35.1016 46.7109 34.3828 46.4766 33.5234C46.2578 32.6484 46.0625 31.6797 45.8906 30.6172C45.7344 29.5547 45.6016 28.4141 45.4922 27.1953C45.3984 25.9609 45.3203 24.6875 45.2578 23.375C44.0859 23.5312 42.7656 23.7031 41.2969 23.8906C39.8438 24.0781 38.1797 24.2969 36.3047 24.5469C34.9922 24.7344 33.6562 24.8984 32.2969 25.0391C28.9531 28.6797 25.4297 31.4453 21.7266 33.3359C18.0391 35.2109 14.3359 36.1484 10.6172 36.1484C8.96094 36.1484 7.52344 35.9844 6.30469 35.6562C5.10156 35.3438 4.10156 34.9922 3.30469 34.6016C2.52344 34.1953 1.9375 33.8203 1.54688 33.4766C1.14062 33.1328 0.921875 32.9453 0.890625 32.9141C0.734375 32.7578 0.65625 32.5547 0.65625 32.3047C0.65625 32.0547 0.742188 31.8438 0.914062 31.6719C1.08594 31.5 1.28906 31.4141 1.52344 31.4141C1.78906 31.4141 2.00781 31.5078 2.17969 31.6953C2.21094 31.7266 2.39844 31.8906 2.74219 32.1875C3.08594 32.4688 3.59375 32.7734 4.26562 33.1016C4.95312 33.4297 5.82031 33.7266 6.86719 33.9922C7.91406 34.2578 9.15625 34.3906 10.5938 34.3906C12.5625 34.3906 14.4453 34.125 16.2422 33.5938C18.0391 33.0625 19.7344 32.375 21.3281 31.5312C22.9375 30.6719 24.4297 29.6953 25.8047 28.6016C27.1953 27.5078 28.4531 26.3984 29.5781 25.2734C28.4688 25.3672 27.3672 25.4375 26.2734 25.4844C25.1797 25.5312 24.1016 25.5547 23.0391 25.5547C20.9453 25.5547 18.9531 25.4375 17.0625 25.2031C15.1719 24.9688 13.5078 24.5781 12.0703 24.0312C10.6328 23.4688 9.48438 22.7266 8.625 21.8047C7.78125 20.8828 7.35938 19.7344 7.35938 18.3594C7.35938 17.7344 7.48438 17.1094 7.73438 16.4844C8 15.8594 8.3125 15.2969 8.67188 14.7969C9.03125 14.2812 9.40625 13.8672 9.79688 13.5547C10.1875 13.2266 10.5234 13.0625 10.8047 13.0625C11.0234 13.0625 11.2266 13.1406 11.4141 13.2969C11.6016 13.4531 11.6953 13.6641 11.6953 13.9297C11.6953 14.0703 11.6641 14.2109 11.6016 14.3516C11.5391 14.4766 11.4453 14.5781 11.3203 14.6562C11.2891 14.6875 11.1562 14.7969 10.9219 14.9844C10.6875 15.1719 10.4375 15.4297 10.1719 15.7578C9.90625 16.0703 9.66406 16.4531 9.44531 16.9062C9.22656 17.3438 9.11719 17.8203 9.11719 18.3359C9.11719 19.2266 9.42188 20.0156 10.0312 20.7031C10.6562 21.375 11.5547 21.9453 12.7266 22.4141C13.9141 22.8672 15.3672 23.2109 17.0859 23.4453C18.8047 23.6797 20.7656 23.7969 22.9688 23.7969C24.2344 23.7969 25.5703 23.7578 26.9766 23.6797C28.3828 23.6016 29.8672 23.4844 31.4297 23.3281C32.1797 22.5 32.8438 21.7188 33.4219 20.9844C34 20.25 34.4922 19.5938 34.8984 19.0156C35.5703 18.0625 36.2734 17.0469 37.0078 15.9688C37.7422 14.8906 38.4688 13.7969 39.1875 12.6875C39.9219 11.5781 40.6328 10.4844 41.3203 9.40625C42.0234 8.3125 42.6797 7.28906 43.2891 6.33594C43.8984 5.36719 44.4453 4.49219 44.9297 3.71094C45.4141 2.91406 45.8125 2.25781 46.125 1.74219C46.2188 1.32031 46.3594 0.9375 46.5469 0.59375C46.7344 0.234375 47.0391 0.0546875 47.4609 0.0546875C47.6953 0.0546875 47.9219 0.15625 48.1406 0.359375C48.3594 0.546875 48.4688 0.789062 48.4688 1.08594C48.4688 1.30469 48.3906 1.53906 48.2344 1.78906C48.0781 2.03906 47.9297 2.25 47.7891 2.42188C47.7422 2.71875 47.6641 3.35156 47.5547 4.32031C47.4609 5.28906 47.3594 6.47656 47.25 7.88281C47.1562 9.27344 47.0703 10.8125 46.9922 12.5C46.9297 14.1719 46.8984 15.8672 46.8984 17.5859C46.8984 18.2266 46.8984 18.8594 46.8984 19.4844C46.8984 20.1094 46.9141 20.7422 46.9453 21.3828C49.2891 21.0859 51 20.8828 52.0781 20.7734C53.1562 20.6484 53.7266 20.5859 53.7891 20.5859C53.9922 20.5859 54.1875 20.6719 54.375 20.8438C54.5781 21 54.6797 21.2109 54.6797 21.4766C54.6797 21.6953 54.6016 21.8906 54.4453 22.0625C54.3047 22.2188 54.1172 22.3125 53.8828 22.3438C53.6016 22.375 53.2734 22.4141 52.8984 22.4609C52.5234 22.5078 52.0625 22.5625 51.5156 22.625C50.9688 22.6875 50.3281 22.7656 49.5938 22.8594C48.8594 22.9375 48 23.0391 47.0156 23.1641C47.0625 24.4453 47.1328 25.6797 47.2266 26.8672C47.3359 28.0391 47.4609 29.1328 47.6016 30.1484C47.7578 31.1641 47.9375 32.0781 48.1406 32.8906C48.3438 33.7031 48.5781 34.3672 48.8438 34.8828ZM36.0703 22.7891C37.9141 22.5391 39.5859 22.3203 41.0859 22.1328C42.6016 21.9297 43.9688 21.75 45.1875 21.5938C45.1719 20.9219 45.1562 20.25 45.1406 19.5781C45.1406 18.9062 45.1406 18.2266 45.1406 17.5391C45.1406 15.3359 45.1797 13.2344 45.2578 11.2344C45.3359 9.21875 45.4453 7.46875 45.5859 5.98438C44.9609 6.96875 44.2656 8.0625 43.5 9.26562C42.75 10.4531 41.9688 11.6719 41.1562 12.9219C40.3438 14.1562 39.5234 15.3828 38.6953 16.6016C37.8672 17.8203 37.0781 18.9609 36.3281 20.0234C35.9531 20.5547 35.5703 21.0703 35.1797 21.5703C34.7891 22.0703 34.3984 22.5625 34.0078 23.0469C34.3516 23.0156 34.6875 22.9766 35.0156 22.9297C35.3594 22.8828 35.7109 22.8359 36.0703 22.7891ZM64.6566 27.6172C64.4222 28.7109 64.0863 29.7344 63.6488 30.6875C63.2113 31.625 62.7425 32.4453 62.2425 33.1484C61.7581 33.8516 61.2659 34.4062 60.7659 34.8125C60.2659 35.2188 59.8363 35.4375 59.4769 35.4688C59.0706 35.4688 58.6175 35.2656 58.1175 34.8594C57.6331 34.4531 57.1644 33.8906 56.7113 33.1719C56.2738 32.4375 55.9066 31.5703 55.6097 30.5703C55.3128 29.5703 55.1644 28.4844 55.1644 27.3125C55.1644 26.2812 55.2503 25.5 55.4222 24.9688C55.6097 24.4375 55.7269 24.1328 55.7738 24.0547C55.8519 23.9141 55.9534 23.8047 56.0784 23.7266C56.2191 23.6484 56.3753 23.6094 56.5472 23.6094C56.8128 23.6094 57.0238 23.7031 57.18 23.8906C57.3363 24.0625 57.4144 24.2578 57.4144 24.4766C57.4144 24.6328 57.3831 24.7656 57.3206 24.875C57.305 24.9062 57.2347 25.1172 57.1097 25.5078C56.9847 25.8984 56.9222 26.4844 56.9222 27.2656C56.9222 28.1875 57.0159 29.0391 57.2034 29.8203C57.3909 30.6016 57.6175 31.2734 57.8831 31.8359C58.1488 32.3984 58.4222 32.8438 58.7034 33.1719C59.0003 33.4844 59.2425 33.6406 59.43 33.6406C59.555 33.6406 59.7347 33.5234 59.9691 33.2891C60.2191 33.0547 60.4769 32.7344 60.7425 32.3281C61.0238 31.9219 61.305 31.4375 61.5863 30.875C61.8831 30.3125 62.1488 29.7031 62.3831 29.0469C62.6331 28.375 62.8284 27.6719 62.9691 26.9375C63.1253 26.1875 63.2034 25.4297 63.2034 24.6641C63.2034 24.5078 63.1956 24.3594 63.18 24.2188C63.18 24.0625 63.18 23.9062 63.18 23.75C63.18 23.4844 63.2581 23.2656 63.4144 23.0938C63.5863 22.9062 63.805 22.8125 64.0706 22.8125C64.2738 22.8125 64.4534 22.875 64.6097 23C64.7816 23.125 64.8909 23.2969 64.9378 23.5156C64.9378 23.5 64.9691 23.625 65.0316 23.8906C65.0941 24.1562 65.1956 24.5 65.3363 24.9219C65.4925 25.3281 65.68 25.7734 65.8988 26.2578C66.1331 26.7422 66.4066 27.1953 66.7191 27.6172C67.0472 28.0234 67.4222 28.3672 67.8441 28.6484C68.2659 28.9297 68.7503 29.0703 69.2972 29.0703C69.5941 29.0703 69.8519 29.0078 70.0706 28.8828C70.2894 28.7578 70.4691 28.6172 70.6097 28.4609C70.7503 28.3047 70.8519 28.1562 70.9144 28.0156C70.9925 27.875 71.0316 27.7969 71.0316 27.7812C71.0941 27.6094 71.1956 27.4766 71.3363 27.3828C71.4925 27.2734 71.6644 27.2188 71.8519 27.2188C72.1019 27.2188 72.3128 27.3125 72.4847 27.5C72.6566 27.6719 72.7425 27.875 72.7425 28.1094C72.7425 28.2188 72.7191 28.3281 72.6722 28.4375C72.5784 28.6562 72.4378 28.9062 72.2503 29.1875C72.0784 29.4688 71.8519 29.7344 71.5706 29.9844C71.2894 30.2344 70.9534 30.4453 70.5628 30.6172C70.1878 30.7734 69.7659 30.8516 69.2972 30.8516C68.7503 30.8516 68.2425 30.7578 67.7738 30.5703C67.305 30.3672 66.8753 30.1172 66.4847 29.8203C66.1097 29.5078 65.7659 29.1641 65.4534 28.7891C65.1409 28.3984 64.8753 28.0078 64.6566 27.6172ZM81.4538 35.3281C82.0006 34.7812 82.5553 34.2266 83.1178 33.6641C83.6803 33.0859 84.2272 32.4844 84.7584 31.8594C85.2897 31.2344 85.7819 30.5859 86.235 29.9141C86.7038 29.2266 87.1178 28.5 87.4772 27.7344C87.5553 27.5625 87.6647 27.4375 87.8053 27.3594C87.9459 27.2656 88.1022 27.2188 88.2741 27.2188C88.5397 27.2188 88.7506 27.3125 88.9069 27.5C89.0788 27.6875 89.1647 27.8984 89.1647 28.1328C89.1647 28.2578 89.1413 28.375 89.0944 28.4844C88.61 29.5 88.0553 30.4297 87.4303 31.2734C86.8053 32.1172 86.1491 32.9219 85.4616 33.6875C84.7741 34.4375 84.0788 35.1641 83.3756 35.8672C82.6725 36.5859 82.0006 37.3047 81.36 38.0234C81.2975 39.1016 81.2975 40.1797 81.36 41.2578C81.4225 42.3516 81.4538 43.5078 81.4538 44.7266C81.4538 45.7266 81.4225 46.7266 81.36 47.7266C81.2975 48.7266 81.1959 49.6797 81.0553 50.5859C80.9147 51.5078 80.7194 52.3672 80.4694 53.1641C80.235 53.9609 79.9303 54.6484 79.5553 55.2266C79.1803 55.8203 78.7428 56.2812 78.2428 56.6094C77.7428 56.9531 77.1569 57.125 76.485 57.125C75.3756 57.125 74.5241 56.7422 73.9303 55.9766C73.3366 55.2109 73.0397 54.1406 73.0397 52.7656C73.0397 52.0156 73.1178 51.2109 73.2741 50.3516C73.4459 49.4922 73.6803 48.6016 73.9772 47.6797C74.2741 46.7734 74.6256 45.8516 75.0319 44.9141C75.4538 43.9766 75.9069 43.0625 76.3913 42.1719C76.8756 41.2812 77.3913 40.4297 77.9381 39.6172C78.485 38.8203 79.0397 38.0938 79.6022 37.4375C79.6334 36.6875 79.6647 35.9062 79.6959 35.0938C79.7428 34.2969 79.7897 33.5547 79.8366 32.8672C79.4303 33.5859 78.9225 34.1641 78.3131 34.6016C77.7194 35.0391 77.0631 35.2578 76.3444 35.2578C75.1569 35.2578 74.2272 34.8594 73.5553 34.0625C72.8834 33.2656 72.5475 32.1719 72.5475 30.7812C72.5475 29.7656 72.6413 28.8438 72.8288 28.0156C73.0319 27.1719 73.2428 26.4531 73.4616 25.8594C73.6959 25.25 73.9069 24.7891 74.0944 24.4766C74.2819 24.1484 74.3756 23.9922 74.3756 24.0078C74.5475 23.7422 74.7897 23.6094 75.1022 23.6094C75.3678 23.6094 75.5788 23.7031 75.735 23.8906C75.9069 24.0625 75.9928 24.2656 75.9928 24.5C75.9928 24.6719 75.9459 24.8281 75.8522 24.9688C75.8678 24.9531 75.7897 25.0859 75.6178 25.3672C75.4616 25.6328 75.2819 26.0234 75.0788 26.5391C74.8913 27.0547 74.7116 27.6719 74.5397 28.3906C74.3834 29.1094 74.3053 29.8984 74.3053 30.7578C74.3053 31.6172 74.4616 32.2891 74.7741 32.7734C75.0866 33.2578 75.5944 33.5 76.2975 33.5C77.1881 33.5 77.9928 32.8438 78.7116 31.5312C79.4303 30.2031 80.0397 28.2812 80.5397 25.7656C80.5709 25.5625 80.6647 25.3984 80.8209 25.2734C80.9772 25.1328 81.1647 25.0625 81.3834 25.0625C81.6334 25.0625 81.8444 25.1484 82.0163 25.3203C82.1881 25.4922 82.2741 25.7031 82.2741 25.9531C82.2741 26 82.2428 26.2812 82.1803 26.7969C82.1178 27.2969 82.0397 27.9688 81.9459 28.8125C81.8678 29.6562 81.7819 30.6406 81.6881 31.7656C81.5944 32.875 81.5163 34.0625 81.4538 35.3281ZM79.5788 40.2969C78.8756 41.3125 78.2272 42.3828 77.6334 43.5078C77.0553 44.6328 76.5553 45.75 76.1334 46.8594C75.7116 47.9688 75.3834 49.0312 75.1491 50.0469C74.9147 51.0625 74.7975 51.9688 74.7975 52.7656C74.7975 53.5781 74.9303 54.2109 75.1959 54.6641C75.4616 55.1328 75.8834 55.3672 76.4616 55.3672C76.9772 55.3672 77.4303 55.1094 77.8209 54.5938C78.2272 54.0938 78.5631 53.375 78.8288 52.4375C79.11 51.5 79.3209 50.3594 79.4616 49.0156C79.6022 47.6875 79.6725 46.1953 79.6725 44.5391C79.6725 43.8672 79.6569 43.1875 79.6256 42.5C79.61 41.8125 79.5944 41.0781 79.5788 40.2969ZM107.298 28.4609C107.235 28.5859 107.103 28.8516 106.899 29.2578C106.712 29.6484 106.462 30.1016 106.149 30.6172C105.853 31.1328 105.501 31.6719 105.095 32.2344C104.688 32.7969 104.235 33.3125 103.735 33.7812C103.235 34.25 102.696 34.6406 102.118 34.9531C101.54 35.25 100.931 35.3984 100.29 35.3984C99.3838 35.3984 98.6181 35.1094 97.9931 34.5312C97.3838 33.9531 96.9384 33.2266 96.6572 32.3516C96.1259 33.2422 95.4931 33.9531 94.7588 34.4844C94.0244 35 93.29 35.2578 92.5556 35.2578C91.9775 35.2578 91.4541 35.1562 90.9853 34.9531C90.5166 34.7344 90.1181 34.4375 89.79 34.0625C89.4619 33.6719 89.2041 33.2188 89.0166 32.7031C88.8447 32.1875 88.7588 31.625 88.7588 31.0156C88.7588 29.7969 88.9619 28.7266 89.3681 27.8047C89.79 26.8672 90.3213 26.0859 90.9619 25.4609C91.6025 24.8359 92.3056 24.3672 93.0713 24.0547C93.8525 23.7422 94.6025 23.5859 95.3213 23.5859C95.8056 23.5859 96.2509 23.6562 96.6572 23.7969C97.0634 23.9219 97.4072 24.0625 97.6884 24.2188C97.9853 24.375 98.2119 24.5234 98.3681 24.6641C98.5244 24.7891 98.6103 24.8594 98.6259 24.875C98.7978 25.0781 98.8838 25.2891 98.8838 25.5078C98.8838 25.7422 98.7978 25.9531 98.6259 26.1406C98.4541 26.3125 98.2509 26.3984 98.0166 26.3984C97.7666 26.3984 97.5556 26.3125 97.3838 26.1406C97.3525 26.1094 97.2822 26.0547 97.1728 25.9766C97.0634 25.8828 96.915 25.7891 96.7275 25.6953C96.54 25.6016 96.3134 25.5234 96.0478 25.4609C95.7978 25.3828 95.5088 25.3438 95.1806 25.3438C94.6963 25.3438 94.1806 25.4531 93.6338 25.6719C93.0869 25.8906 92.5869 26.2344 92.1338 26.7031C91.6806 27.1562 91.2978 27.7344 90.9853 28.4375C90.6884 29.125 90.54 29.9453 90.54 30.8984C90.54 31.1953 90.5713 31.5 90.6338 31.8125C90.6963 32.1094 90.8056 32.3828 90.9619 32.6328C91.1181 32.8828 91.3291 33.0859 91.5947 33.2422C91.8603 33.3984 92.1884 33.4766 92.5791 33.4766C92.8603 33.4766 93.1806 33.3828 93.54 33.1953C93.915 33.0078 94.2666 32.7188 94.5947 32.3281C94.9384 31.9375 95.2431 31.4453 95.5088 30.8516C95.79 30.2578 95.9853 29.5547 96.0947 28.7422C96.1259 28.5234 96.2275 28.3438 96.3994 28.2031C96.5713 28.0469 96.7744 27.9688 97.0088 27.9688C97.2275 27.9688 97.415 28.0547 97.5713 28.2266C97.7431 28.3984 97.8369 28.5938 97.8525 28.8125C97.8681 29.1094 97.8994 29.5312 97.9463 30.0781C97.9931 30.6094 98.0947 31.1406 98.2509 31.6719C98.4228 32.2031 98.6728 32.6641 99.0009 33.0547C99.3291 33.4453 99.7822 33.6406 100.36 33.6406C100.735 33.6406 101.103 33.5391 101.462 33.3359C101.837 33.1328 102.196 32.8672 102.54 32.5391C102.899 32.1953 103.235 31.8125 103.548 31.3906C103.876 30.9531 104.173 30.5156 104.438 30.0781C104.704 29.6406 104.938 29.2188 105.142 28.8125C105.345 28.4062 105.517 28.0547 105.657 27.7578C105.735 27.5859 105.845 27.4531 105.985 27.3594C106.142 27.2656 106.306 27.2188 106.478 27.2188C106.743 27.2188 106.954 27.3203 107.11 27.5234C107.282 27.7109 107.368 27.9141 107.368 28.1328C107.368 28.2422 107.345 28.3516 107.298 28.4609ZM126.345 11.5391C126.345 11.7891 126.259 11.9922 126.087 12.1484C125.915 12.2891 125.704 12.3594 125.454 12.3594H113.572V12.6172C113.572 13.5703 113.501 14.5859 113.361 15.6641C113.22 16.7422 113.025 17.8203 112.775 18.8984C112.54 19.9609 112.267 21 111.954 22.0156C111.658 23.0312 111.345 23.9688 111.017 24.8281C110.704 25.6875 110.392 26.4375 110.079 27.0781C109.767 27.7031 109.486 28.1719 109.236 28.4844C109.439 29.2031 109.681 29.875 109.962 30.5C110.243 31.1094 110.556 31.6484 110.9 32.1172C111.259 32.5703 111.642 32.9297 112.048 33.1953C112.454 33.4609 112.892 33.5938 113.361 33.5938C113.908 33.5938 114.447 33.3672 114.978 32.9141C115.525 32.4453 116.025 31.8984 116.478 31.2734C116.947 30.6328 117.353 29.9922 117.697 29.3516C118.056 28.6953 118.314 28.1719 118.47 27.7812C118.626 27.4062 118.9 27.2188 119.29 27.2188C119.556 27.2188 119.767 27.3125 119.923 27.5C120.095 27.6875 120.181 27.8906 120.181 28.1094C120.181 28.2188 120.158 28.3281 120.111 28.4375C120.064 28.5469 119.947 28.7969 119.759 29.1875C119.587 29.5781 119.353 30.0312 119.056 30.5469C118.775 31.0625 118.439 31.6094 118.048 32.1875C117.673 32.75 117.243 33.2656 116.759 33.7344C116.29 34.2031 115.783 34.5938 115.236 34.9062C114.689 35.2188 114.111 35.375 113.501 35.375C112.423 35.375 111.454 35.0234 110.595 34.3203C109.736 33.6172 109.001 32.6328 108.392 31.3672C107.798 30.1016 107.345 28.6016 107.033 26.8672C106.72 25.1328 106.564 23.2344 106.564 21.1719C106.564 20.6562 106.572 20.0547 106.587 19.3672C106.603 18.6641 106.634 17.9297 106.681 17.1641C106.728 16.3828 106.798 15.5859 106.892 14.7734C106.986 13.9453 107.111 13.1406 107.267 12.3594H98.8528C98.6028 12.3594 98.3919 12.2891 98.22 12.1484C98.0481 11.9922 97.9622 11.7891 97.9622 11.5391C97.9622 11.2891 98.0481 11.0938 98.22 10.9531C98.3919 10.7969 98.6028 10.7188 98.8528 10.7188H107.665C107.822 10.1562 108.001 9.64062 108.204 9.17188C108.423 8.70312 108.665 8.29688 108.931 7.95312C109.212 7.60938 109.517 7.34375 109.845 7.15625C110.189 6.95312 110.564 6.85156 110.97 6.85156C111.361 6.85156 111.697 6.95312 111.978 7.15625C112.275 7.34375 112.525 7.60938 112.728 7.95312C112.931 8.29688 113.087 8.70312 113.197 9.17188C113.322 9.64062 113.415 10.1562 113.478 10.7188H125.454C125.704 10.7188 125.915 10.7969 126.087 10.9531C126.259 11.0938 126.345 11.2891 126.345 11.5391ZM108.697 26.1406C109.165 25.1094 109.587 24 109.962 22.8125C110.353 21.6094 110.681 20.3984 110.947 19.1797C111.228 17.9609 111.439 16.7656 111.579 15.5938C111.736 14.4219 111.814 13.3438 111.814 12.3594H109.048C108.829 13.3281 108.65 14.5312 108.509 15.9688C108.384 17.3906 108.322 19.125 108.322 21.1719C108.322 22.3125 108.353 23.2734 108.415 24.0547C108.478 24.8203 108.572 25.5156 108.697 26.1406ZM110.876 8.60938C110.736 8.60938 110.533 8.76562 110.267 9.07812C110.001 9.375 109.736 9.92188 109.47 10.7188H111.72C111.642 10.0625 111.525 9.54688 111.368 9.17188C111.228 8.79688 111.064 8.60938 110.876 8.60938ZM109.072 27.8281V27.8516V27.8281ZM122.095 33.0078C122.345 32.4766 122.634 31.9062 122.963 31.2969C123.291 30.6719 123.642 30.0391 124.017 29.3984C124.392 28.7422 124.791 28.0938 125.213 27.4531C125.634 26.8125 126.072 26.2109 126.525 25.6484C126.978 25.1016 127.431 24.7109 127.884 24.4766C128.353 24.2266 128.791 24.1016 129.197 24.1016C129.603 24.1016 129.955 24.1875 130.252 24.3594C130.564 24.5156 130.814 24.7344 131.002 25.0156C131.205 25.2969 131.353 25.625 131.447 26C131.556 26.375 131.611 26.7812 131.611 27.2188C131.611 27.5781 131.572 28.0625 131.494 28.6719C131.431 29.2656 131.4 29.8906 131.4 30.5469C131.4 30.9219 131.416 31.2969 131.447 31.6719C131.494 32.0312 131.564 32.3594 131.658 32.6562C131.767 32.9375 131.923 33.1719 132.127 33.3594C132.33 33.5312 132.595 33.6172 132.923 33.6172C133.298 33.6172 133.673 33.5156 134.048 33.3125C134.423 33.0938 134.791 32.8125 135.15 32.4688C135.509 32.1094 135.853 31.7188 136.181 31.2969C136.509 30.8594 136.806 30.4297 137.072 30.0078C137.338 29.5703 137.572 29.1562 137.775 28.7656C137.978 28.3594 138.142 28.0234 138.267 27.7578C138.423 27.3984 138.697 27.2188 139.088 27.2188C139.353 27.2188 139.564 27.3125 139.72 27.5C139.877 27.6875 139.955 27.8906 139.955 28.1094C139.955 28.2344 139.931 28.3516 139.884 28.4609C139.822 28.5859 139.697 28.8438 139.509 29.2344C139.338 29.625 139.095 30.0781 138.783 30.5938C138.486 31.1094 138.134 31.6484 137.728 32.2109C137.322 32.7734 136.869 33.2969 136.369 33.7812C135.884 34.25 135.353 34.6406 134.775 34.9531C134.213 35.25 133.619 35.3984 132.994 35.3984C132.275 35.3984 131.697 35.25 131.259 34.9531C130.822 34.6406 130.478 34.25 130.228 33.7812C129.994 33.3125 129.83 32.7891 129.736 32.2109C129.658 31.6328 129.619 31.0703 129.619 30.5234C129.619 30.2422 129.627 29.9453 129.642 29.6328C129.673 29.3047 129.705 28.9844 129.736 28.6719C129.767 28.3594 129.791 28.0703 129.806 27.8047C129.838 27.5234 129.853 27.2891 129.853 27.1016C129.853 26.6172 129.783 26.2891 129.642 26.1172C129.517 25.9453 129.369 25.8594 129.197 25.8594C128.947 25.8594 128.658 26.0078 128.33 26.3047C128.017 26.5859 127.681 26.9609 127.322 27.4297C126.978 27.8984 126.627 28.4297 126.267 29.0234C125.923 29.6016 125.588 30.1797 125.259 30.7578C124.931 31.3359 124.634 31.8906 124.369 32.4219C124.103 32.9375 123.884 33.3672 123.713 33.7109C123.384 34.3672 123.048 34.8047 122.705 35.0234C122.377 35.2578 122.08 35.375 121.814 35.375C121.33 35.375 120.955 35.1875 120.689 34.8125C120.439 34.4219 120.314 33.9531 120.314 33.4062V31.9297C120.314 28.9766 120.314 26.1641 120.314 23.4922C120.33 20.8047 120.369 18.3125 120.431 16.0156C120.509 13.7031 120.627 11.6172 120.783 9.75781C120.955 7.88281 121.205 6.28906 121.533 4.97656C121.861 3.64844 122.275 2.625 122.775 1.90625C123.291 1.1875 123.931 0.828125 124.697 0.828125C125.353 0.828125 125.908 1.00781 126.361 1.36719C126.814 1.72656 127.181 2.21875 127.463 2.84375C127.744 3.45312 127.947 4.17188 128.072 5C128.197 5.8125 128.259 6.67188 128.259 7.57812C128.259 9.42188 128.088 11.2344 127.744 13.0156C127.416 14.7812 126.97 16.5078 126.408 18.1953C125.845 19.8828 125.189 21.5312 124.439 23.1406C123.689 24.7344 122.9 26.2891 122.072 27.8047C122.072 28.0859 122.072 28.4219 122.072 28.8125C122.072 29.2031 122.072 29.5938 122.072 29.9844C122.072 30.375 122.072 30.7422 122.072 31.0859C122.072 31.4297 122.072 31.7031 122.072 31.9062L122.095 33.0078ZM122.095 24.3594C122.752 22.9219 123.345 21.5234 123.877 20.1641C124.423 18.7891 124.884 17.4219 125.259 16.0625C125.65 14.7031 125.955 13.3281 126.173 11.9375C126.392 10.5312 126.502 9.07031 126.502 7.55469C126.502 7.30469 126.486 6.90625 126.455 6.35938C126.439 5.8125 126.369 5.25781 126.244 4.69531C126.134 4.13281 125.955 3.64062 125.705 3.21875C125.47 2.79688 125.134 2.58594 124.697 2.58594C124.353 2.58594 124.056 2.82031 123.806 3.28906C123.556 3.74219 123.338 4.36719 123.15 5.16406C122.963 5.94531 122.806 6.85938 122.681 7.90625C122.556 8.95312 122.455 10.0625 122.377 11.2344C122.298 12.4062 122.236 13.6094 122.189 14.8438C122.158 16.0781 122.134 17.2812 122.119 18.4531C122.103 19.6094 122.095 20.6953 122.095 21.7109C122.095 22.7266 122.095 23.6094 122.095 24.3594ZM143.791 16.6016C143.791 17.1953 143.58 17.7031 143.158 18.125C142.752 18.5312 142.252 18.7344 141.658 18.7344C141.064 18.7344 140.557 18.5312 140.135 18.125C139.728 17.7031 139.525 17.1953 139.525 16.6016C139.525 16.3047 139.58 16.0312 139.689 15.7812C139.799 15.5156 139.947 15.2891 140.135 15.1016C140.338 14.8984 140.564 14.7422 140.814 14.6328C141.08 14.5234 141.361 14.4688 141.658 14.4688C141.955 14.4688 142.228 14.5234 142.478 14.6328C142.744 14.7422 142.971 14.8984 143.158 15.1016C143.361 15.2891 143.518 15.5156 143.627 15.7812C143.736 16.0312 143.791 16.3047 143.791 16.6016ZM139.994 30.3359C139.994 28.0859 140.135 25.8438 140.416 23.6094C140.447 23.3906 140.541 23.2031 140.697 23.0469C140.869 22.875 141.088 22.7891 141.353 22.7891C141.588 22.7891 141.783 22.8828 141.939 23.0703C142.096 23.2422 142.174 23.4453 142.174 23.6797C142.174 23.7734 142.15 24.0547 142.103 24.5234C142.072 24.9922 142.025 25.5547 141.963 26.2109C141.916 26.8516 141.869 27.5391 141.822 28.2734C141.791 28.9922 141.775 29.6562 141.775 30.2656C141.775 31.0938 141.853 31.7656 142.01 32.2812C142.182 32.7812 142.393 33.1719 142.643 33.4531C142.908 33.7344 143.182 33.9219 143.463 34.0156C143.76 34.1094 144.041 34.1562 144.307 34.1562C144.744 34.1562 145.197 34 145.666 33.6875C146.135 33.375 146.611 32.9375 147.096 32.375C147.596 31.8125 148.096 31.1406 148.596 30.3594C149.096 29.5625 149.588 28.6797 150.072 27.7109C150.15 27.5547 150.26 27.4375 150.4 27.3594C150.541 27.2656 150.697 27.2188 150.869 27.2188C151.119 27.2188 151.322 27.3125 151.478 27.5C151.65 27.6875 151.736 27.8906 151.736 28.1094C151.736 28.2656 151.705 28.3984 151.643 28.5078C151.455 28.8672 151.221 29.3047 150.939 29.8203C150.658 30.3359 150.338 30.8672 149.978 31.4141C149.619 31.9609 149.221 32.5078 148.783 33.0547C148.361 33.5859 147.908 34.0703 147.424 34.5078C146.939 34.9297 146.432 35.2734 145.9 35.5391C145.369 35.8047 144.83 35.9375 144.283 35.9375C143.58 35.9375 142.963 35.7891 142.432 35.4922C141.9 35.1953 141.447 34.7969 141.072 34.2969C140.713 33.7969 140.439 33.2109 140.252 32.5391C140.08 31.8516 139.994 31.1172 139.994 30.3359ZM142.478 16.6016C142.478 16.3828 142.393 16.1953 142.221 16.0391C142.064 15.8672 141.877 15.7812 141.658 15.7812C141.439 15.7812 141.252 15.8672 141.096 16.0391C140.939 16.1953 140.861 16.3828 140.861 16.6016C140.861 16.8203 140.939 17.0078 141.096 17.1641C141.252 17.3203 141.439 17.3984 141.658 17.3984C141.877 17.3984 142.064 17.3203 142.221 17.1641C142.393 17.0078 142.478 16.8203 142.478 16.6016Z" fill="#3C0200"/>
</svg>
